<?xml version="1.0" encoding="utf-8"?>
<!-- Generator: Adobe Illustrator 16.0.0, SVG Export Plug-In . SVG Version: 6.00 Build 0)  -->
<!DOCTYPE svg PUBLIC "-//W3C//DTD SVG 1.1//EN" "http://www.w3.org/Graphics/SVG/1.1/DTD/svg11.dtd">
<svg version="1.1" xmlns="http://www.w3.org/2000/svg" xmlns:xlink="http://www.w3.org/1999/xlink" x="0px" y="0px"
	 width="1069.681px" height="552.605px" viewBox="0 0 1069.681 552.605" enable-background="new 0 0 1069.681 552.605"
	 xml:space="preserve">
<g id="Globe">
	<circle fill="#B3B3B3" cx="347.91" cy="262.5" r="262.5"/>
</g>
<g id="FMS">
	<g>
		<path fill="#FFFFFF" d="M172.502,348.871h-45.618V156.096h45.618v70.372h58.99v-70.372h45.617v192.775h-45.617v-78.794h-58.99
			V348.871z"/>
		<path fill="#FFFFFF" d="M401.773,348.871H283.664V156.096h118.109v40.892h-72.491v33.42h36.835l10.618,40.62h-47.453v37.223
			h72.491V348.871z"/>
		<path fill="#FFFFFF" d="M408.327,348.464V156.096h51.779c14.682,0,27.659,1.994,38.933,5.978
			c11.098,3.896,19.794,10.28,26.086,19.155c6.204,8.877,9.308,20.333,9.308,34.371c0,10.325-2.71,20.198-8.127,29.616
			c-5.332,9.329-12.542,15.759-21.63,19.291l46.143,84.229h-53.353l-42.996-86.402h-0.524v86.131H408.327z M453.945,250.921
			c7.689,0,14.069-0.951,19.139-2.853c4.894-1.719,8.783-4.755,11.667-9.102c2.708-4.165,4.063-9.554,4.063-16.167
			c0-9.961-2.884-16.754-8.651-20.378c-5.856-3.621-14.596-5.434-26.218-5.434V250.921z"/>
		<path fill="#FFFFFF" d="M730.67,153.651v195.356l-49.289-0.136V257.85l-39.063,38.718l-36.312-37.224l-0.131,89.663h-48.502
			V153.651l84.944,75.263L730.67,153.651z"/>
		<path fill="#FFFFFF" d="M855.333,348.871H737.224V156.096h118.109v40.892h-72.491v33.42h36.835l10.618,40.62h-47.453v37.223
			h72.491V348.871z"/>
		<path fill="#FFFFFF" d="M956.27,207.041c-5.42-5.343-10.182-9.102-14.289-11.276c-4.371-2.354-9.438-3.532-15.206-3.532
			c-4.282,0-8.304,1.405-12.06,4.211c-3.933,2.808-5.899,6.521-5.899,11.14c0,6.521,4.281,11.683,12.847,15.487
			c8.738,3.895,17.697,7.654,26.873,11.276c9.262,3.804,17.304,9.828,24.12,18.068c6.729,8.333,10.094,20.56,10.094,36.68
			c0,20.649-5.987,36.5-17.959,47.548c-11.886,11.14-27.049,16.71-45.487,16.71c-10.663,0-20.974-1.902-30.937-5.706
			c-10.051-3.804-18.876-9.51-26.479-17.117l24.645-36.409c7.865,10.325,18.221,15.487,31.067,15.487
			c5.155,0,10.094-1.494,14.813-4.482c4.631-2.897,6.948-7.154,6.948-12.771c0-6.61-4.326-11.864-12.978-15.759
			c-3.847-1.719-8.304-3.668-13.371-5.842l-6.816-2.853l-6.948-2.989c-9.352-3.984-17.349-10.006-23.988-18.068
			c-6.643-7.968-9.963-19.879-9.963-35.729c0-12.135,2.884-22.732,8.651-31.79c5.592-8.966,13.064-15.848,22.416-20.649
			c9.088-4.708,18.832-7.064,29.232-7.064c9.612,0,19.051,1.902,28.314,5.706c9.438,3.986,17.697,9.509,24.775,16.574
			L956.27,207.041z"/>
	</g>
</g>
<g id="Sub_Text">
	<g>
		<path fill="#FFFFFF" d="M171.747,385.739v20.86h-9.277v-20.86c-0.155-3.112-1.32-4.712-3.497-4.801h-0.52
			c-2.351,0.089-3.526,1.954-3.526,5.596V406.6h-9.248v-20.065c0-9.602,4.258-14.668,12.774-15.197h0.52
			c3.391,0.221,6.107,1.147,8.15,2.781c2.023-1.634,4.729-2.561,8.121-2.781h0.52c8.516,0.529,12.774,5.596,12.774,15.197V406.6
			h-9.248v-20.065c0-3.642-1.175-5.507-3.526-5.596h-0.52C173.066,381.027,171.9,382.627,171.747,385.739z"/>
		<path fill="#FFFFFF" d="M225.337,382.229c0.867,2.23,1.301,4.614,1.301,7.152v0.298c0,0.111-0.01,0.232-0.029,0.364l-0.058,0.563
			h-3.583v0.065h-19.883c0.231,1.854,0.934,3.455,2.11,4.802c1.483,1.678,3.217,2.516,5.202,2.516c2.004,0,3.738-0.838,5.202-2.516
			l0.058-0.066l0.087-0.133l0.087-0.099l0.058-0.1l4.971,8.146c-1.426,1.324-2.871,2.329-4.335,3.013
			c-1.965,0.883-4.008,1.324-6.127,1.324c-2.871,0-5.539-0.783-8.005-2.351c-2.524-1.59-4.518-3.764-5.982-6.523
			c-1.503-2.759-2.254-5.86-2.254-9.304c0-2.583,0.434-4.967,1.3-7.152c0.867-2.207,2.062-4.127,3.584-5.761
			c1.541-1.678,3.275-2.947,5.202-3.808c1.984-0.883,4.036-1.324,6.156-1.324c2.119,0,4.162,0.441,6.127,1.324
			c1.946,0.86,3.689,2.119,5.231,3.774C223.276,378.047,224.471,379.979,225.337,382.229z M210.396,380.905
			c-1.291,0-2.505,0.376-3.641,1.126c-0.694,0.485-1.368,1.17-2.023,2.053h11.329c-0.655-0.883-1.33-1.567-2.023-2.053
			C212.9,381.281,211.687,380.905,210.396,380.905z"/>
		<path fill="#FFFFFF" d="M247.398,381.502c-0.481-0.376-1.108-0.585-1.878-0.63H245c-2.351,0.111-3.526,1.987-3.526,5.629v20.065
			h-9.248v-20.065c0-9.646,4.258-14.712,12.774-15.197h0.52c0.636,0.021,1.262,0.088,1.878,0.198V381.502z"/>
		<path fill="#FFFFFF" d="M275.76,382.893c-0.829-0.795-1.734-1.391-2.717-1.788c-1.021-0.397-2.1-0.597-3.237-0.597
			c-2.12,0-3.912,0.784-5.375,2.352c-1.484,1.567-2.225,3.51-2.225,5.827c0,1.811,0.318,3.433,0.954,4.867
			c0.616,1.436,1.532,2.572,2.746,3.41c1.175,0.861,2.533,1.292,4.075,1.292c2.273,0,4.22-0.828,5.838-2.483l5.058,7.351
			c-0.732,0.883-1.753,1.667-3.063,2.351c-1.33,0.685-2.698,1.192-4.104,1.523s-2.707,0.496-3.901,0.496
			c-3.353,0-6.31-0.806-8.872-2.417c-2.563-1.633-4.528-3.774-5.896-6.423c-1.368-2.693-2.052-5.574-2.052-8.643
			c0-2.803,0.414-5.342,1.243-7.615c0.848-2.317,2.013-4.305,3.497-5.96c1.464-1.611,3.246-2.881,5.346-3.808
			c2.081-0.905,4.325-1.357,6.734-1.357c1.965,0,3.882,0.354,5.751,1.06c1.888,0.729,3.555,1.755,5,3.079L275.76,382.893z"/>
		<path fill="#FFFFFF" d="M299.237,397.99h0.52c2.351-0.088,3.526-1.953,3.526-5.596v-19.733h9.248v19.733
			c0,9.603-4.258,14.669-12.774,15.198h-0.52c-8.516-0.529-12.774-5.596-12.774-15.198v-19.733h9.248v19.733
			C295.711,396.037,296.886,397.902,299.237,397.99z"/>
		<path fill="#FFFFFF" d="M333.292,381.502c-0.481-0.376-1.108-0.585-1.878-0.63h-0.52c-2.351,0.111-3.526,1.987-3.526,5.629v20.065
			h-9.248v-20.065c0-9.646,4.258-14.712,12.774-15.197h0.52c0.636,0.021,1.262,0.088,1.878,0.198V381.502z"/>
		<path fill="#FFFFFF" d="M358.244,405.938c-1.753,0.816-3.372,1.302-4.855,1.457c-9.113,1.104-13.67-3.874-13.67-14.934v-19.767
			h9.248v19.038c0,2.009,0.405,3.532,1.214,4.569c0.81,1.016,1.946,1.523,3.41,1.523c1.406,0,2.534-0.519,3.381-1.557
			c0.81-1.037,1.214-2.549,1.214-4.536v-19.005l9.248-0.033v37.879c0,4.105-1.271,7.637-3.815,10.595
			c-1.156,1.325-2.745,2.406-4.768,3.245c-1.831,0.75-3.67,1.126-5.52,1.126h-1.532c-4.124-0.089-7.427-1.546-9.913-4.371
			c-1.618-1.898-2.62-3.598-3.005-5.099l8.352-5.596c0.077,1.677,0.646,3.09,1.705,4.238c1.06,1.147,2.322,1.722,3.786,1.722
			c1.137,0,2.177-0.376,3.121-1.126c0.886-0.685,1.551-1.634,1.994-2.848l0.029-0.1l0.058-0.165l0.058-0.231l0.058-0.232
			c0.077-0.198,0.125-0.452,0.145-0.762c0-0.044,0.01-0.099,0.029-0.165v-0.331h0.029V405.938z"/>
		<path fill="#FFFFFF" d="M409.563,405.573c-0.617,0.31-1.069,0.519-1.358,0.629c-2.043,0.905-4.182,1.357-6.416,1.357
			c-2.948,0-5.732-0.783-8.353-2.351c-2.62-1.59-4.701-3.753-6.242-6.49c-1.561-2.781-2.341-5.882-2.341-9.304
			c0-2.583,0.452-4.988,1.358-7.218c0.905-2.207,2.148-4.128,3.728-5.762c1.562-1.633,3.372-2.881,5.434-3.741
			c2.062-0.905,4.2-1.357,6.416-1.357c2.196,0,4.335,0.441,6.416,1.324c2.08,0.883,3.892,2.142,5.433,3.774
			c1.619,1.678,2.871,3.599,3.758,5.762c0.905,2.229,1.357,4.635,1.357,7.218l-0.028,17.251l-9.161-0.1V405.573z M395.141,385.144
			c-0.713,1.303-1.069,2.727-1.069,4.271c0,2.34,0.771,4.359,2.313,6.06c1.521,1.678,3.323,2.516,5.404,2.516
			c2.1,0,3.911-0.838,5.434-2.516c1.541-1.7,2.312-3.72,2.312-6.06c0-1.545-0.356-2.969-1.069-4.271
			c-0.713-1.302-1.667-2.339-2.861-3.112c-1.175-0.75-2.446-1.126-3.814-1.126c-1.329,0-2.592,0.376-3.786,1.126
			C396.808,382.805,395.854,383.842,395.141,385.144z"/>
		<path fill="#FFFFFF" d="M424.341,389.282c0.019-3.377,0.799-6.412,2.341-9.105c1.541-2.759,3.622-4.922,6.242-6.489
			c2.62-1.59,5.404-2.384,8.353-2.384c2.254,0,4.393,0.452,6.416,1.357c2.003,0.839,3.824,2.108,5.462,3.808
			c1.618,1.7,2.87,3.643,3.757,5.827c0.886,2.186,1.329,4.592,1.329,7.219c0,2.561-0.452,4.955-1.357,7.185
			c-0.887,2.208-2.13,4.139-3.729,5.795c-1.6,1.678-3.42,2.946-5.462,3.808c-2.063,0.86-4.201,1.291-6.416,1.291
			c-2.178,0-4.307-0.431-6.387-1.291l-0.665-0.331l-0.665-0.331v13.973l-9.219-0.033V389.282z M433.56,389.515
			c0,1.567,0.356,2.979,1.069,4.238c0.713,1.303,1.667,2.34,2.861,3.112c1.175,0.772,2.438,1.158,3.786,1.158
			s2.62-0.386,3.814-1.158s2.148-1.81,2.861-3.112c0.713-1.28,1.069-2.693,1.069-4.238c0-2.34-0.771-4.371-2.312-6.093
			c-1.522-1.699-3.334-2.55-5.434-2.55c-2.081,0-3.883,0.851-5.404,2.55C434.33,385.122,433.56,387.152,433.56,389.515z"/>
		<path fill="#FFFFFF" d="M463.829,389.282c0.019-3.377,0.799-6.412,2.341-9.105c1.541-2.759,3.622-4.922,6.242-6.489
			c2.62-1.59,5.404-2.384,8.353-2.384c2.254,0,4.393,0.452,6.416,1.357c2.003,0.839,3.824,2.108,5.462,3.808
			c1.618,1.7,2.87,3.643,3.757,5.827c0.886,2.186,1.329,4.592,1.329,7.219c0,2.561-0.452,4.955-1.357,7.185
			c-0.887,2.208-2.13,4.139-3.729,5.795c-1.6,1.678-3.42,2.946-5.462,3.808c-2.063,0.86-4.201,1.291-6.416,1.291
			c-2.178,0-4.307-0.431-6.387-1.291l-0.665-0.331l-0.665-0.331v13.973l-9.219-0.033V389.282z M473.048,389.515
			c0,1.567,0.356,2.979,1.069,4.238c0.713,1.303,1.667,2.34,2.861,3.112c1.175,0.772,2.438,1.158,3.786,1.158
			s2.62-0.386,3.814-1.158s2.148-1.81,2.861-3.112c0.713-1.28,1.069-2.693,1.069-4.238c0-2.34-0.771-4.371-2.312-6.093
			c-1.522-1.699-3.334-2.55-5.434-2.55c-2.081,0-3.883,0.851-5.404,2.55C473.818,385.122,473.048,387.152,473.048,389.515z"/>
		<path fill="#FFFFFF" d="M503.316,359.582l9.219-0.033V406.5l-9.219,0.133V359.582z"/>
		<path fill="#FFFFFF" d="M527.083,365.906c-0.424,0.817-1.002,1.479-1.734,1.986c-0.732,0.509-1.541,0.762-2.427,0.762
			c-0.887,0-1.687-0.242-2.399-0.729c-0.732-0.507-1.311-1.181-1.733-2.02c-0.443-0.883-0.665-1.821-0.665-2.814
			c0-1.015,0.212-1.942,0.636-2.781c0.463-0.861,1.05-1.534,1.763-2.02s1.513-0.729,2.399-0.729c0.886,0,1.694,0.243,2.427,0.729
			c0.713,0.485,1.291,1.158,1.734,2.02c0.424,0.839,0.636,1.767,0.636,2.781C527.719,364.151,527.507,365.09,527.083,365.906z
			 M527.69,372.694v33.938h-9.22v-33.905L527.69,372.694z"/>
		<path fill="#FFFFFF" d="M556.08,382.893c-0.829-0.795-1.734-1.391-2.717-1.788c-1.021-0.397-2.101-0.597-3.236-0.597
			c-2.12,0-3.912,0.784-5.376,2.352c-1.483,1.567-2.226,3.51-2.226,5.827c0,1.811,0.318,3.433,0.954,4.867
			c0.616,1.436,1.531,2.572,2.745,3.41c1.176,0.861,2.533,1.292,4.075,1.292c2.273,0,4.22-0.828,5.838-2.483l5.058,7.351
			c-0.732,0.883-1.754,1.667-3.063,2.351c-1.329,0.685-2.697,1.192-4.104,1.523c-1.407,0.331-2.707,0.496-3.901,0.496
			c-3.353,0-6.311-0.806-8.873-2.417c-2.563-1.633-4.527-3.774-5.896-6.423c-1.368-2.693-2.052-5.574-2.052-8.643
			c0-2.803,0.414-5.342,1.243-7.615c0.847-2.317,2.013-4.305,3.496-5.96c1.464-1.611,3.247-2.881,5.347-3.808
			c2.081-0.905,4.325-1.357,6.734-1.357c1.965,0,3.882,0.354,5.751,1.06c1.888,0.729,3.555,1.755,4.999,3.079L556.08,382.893z"/>
		<path fill="#FFFFFF" d="M588.258,405.573c-0.617,0.31-1.069,0.519-1.358,0.629c-2.043,0.905-4.182,1.357-6.416,1.357
			c-2.948,0-5.732-0.783-8.353-2.351c-2.62-1.59-4.701-3.753-6.242-6.49c-1.561-2.781-2.341-5.882-2.341-9.304
			c0-2.583,0.452-4.988,1.358-7.218c0.905-2.207,2.148-4.128,3.728-5.762c1.562-1.633,3.372-2.881,5.434-3.741
			c2.062-0.905,4.2-1.357,6.416-1.357c2.196,0,4.335,0.441,6.416,1.324c2.08,0.883,3.892,2.142,5.433,3.774
			c1.619,1.678,2.871,3.599,3.758,5.762c0.905,2.229,1.357,4.635,1.357,7.218l-0.028,17.251l-9.161-0.1V405.573z M573.836,385.144
			c-0.713,1.303-1.069,2.727-1.069,4.271c0,2.34,0.771,4.359,2.313,6.06c1.521,1.678,3.323,2.516,5.404,2.516
			c2.1,0,3.911-0.838,5.434-2.516c1.541-1.7,2.312-3.72,2.312-6.06c0-1.545-0.356-2.969-1.069-4.271
			c-0.713-1.302-1.667-2.339-2.861-3.112c-1.175-0.75-2.446-1.126-3.814-1.126c-1.329,0-2.592,0.376-3.786,1.126
			C575.503,382.805,574.549,383.842,573.836,385.144z"/>
		<path fill="#FFFFFF" d="M607.688,381.7h-6.098l2.081-9.072h4.017v-13.046l9.22,0.066v12.979h6.127l-2.053,9.072h-4.074v11.225
			c0,3.002,1.637,4.503,4.913,4.503c1.059,0,1.868-0.144,2.427-0.431l-2.658,10.529c-0.482,0.088-0.954,0.133-1.416,0.133
			c-2.756,0-5.048-0.508-6.879-1.523c-1.85-1.015-3.246-2.549-4.19-4.603c-0.944-2.03-1.416-4.624-1.416-7.78V381.7z"/>
		<path fill="#FFFFFF" d="M638.795,365.906c-0.424,0.817-1.002,1.479-1.734,1.986c-0.732,0.509-1.541,0.762-2.427,0.762
			c-0.887,0-1.687-0.242-2.399-0.729c-0.732-0.507-1.311-1.181-1.733-2.02c-0.443-0.883-0.665-1.821-0.665-2.814
			c0-1.015,0.212-1.942,0.636-2.781c0.463-0.861,1.05-1.534,1.763-2.02s1.513-0.729,2.399-0.729c0.886,0,1.694,0.243,2.427,0.729
			c0.713,0.485,1.291,1.158,1.734,2.02c0.424,0.839,0.636,1.767,0.636,2.781C639.431,364.151,639.219,365.09,638.795,365.906z
			 M639.402,372.694v33.938h-9.22v-33.905L639.402,372.694z"/>
		<path fill="#FFFFFF" d="M653.602,405.275c-2.62-1.59-4.701-3.764-6.242-6.523c-1.561-2.781-2.341-5.894-2.341-9.337
			c0-2.583,0.452-4.988,1.358-7.218c0.905-2.229,2.148-4.161,3.728-5.795c1.6-1.655,3.42-2.925,5.463-3.808
			c2.08-0.883,4.209-1.324,6.387-1.324c2.196,0,4.335,0.441,6.416,1.324c2.022,0.839,3.844,2.098,5.462,3.774
			c1.599,1.678,2.842,3.621,3.729,5.828c0.905,2.229,1.357,4.635,1.357,7.218c0,2.627-0.443,5.033-1.329,7.218
			c-0.887,2.208-2.139,4.161-3.757,5.861c-1.638,1.678-3.459,2.946-5.462,3.808c-2.023,0.904-4.162,1.357-6.416,1.357
			C659.006,407.659,656.222,406.864,653.602,405.275z M656.55,395.508c1.521,1.699,3.323,2.549,5.404,2.549
			c2.1,0,3.911-0.85,5.434-2.549c1.541-1.7,2.312-3.73,2.312-6.093c0-1.545-0.356-2.969-1.069-4.271
			c-0.713-1.302-1.667-2.339-2.861-3.112c-1.175-0.772-2.446-1.159-3.814-1.159c-1.329,0-2.592,0.387-3.786,1.159
			c-1.194,0.773-2.148,1.811-2.861,3.112c-0.713,1.303-1.069,2.727-1.069,4.271C654.237,391.777,655.008,393.808,656.55,395.508z"/>
		<path fill="#FFFFFF" d="M697.28,380.905c-2.351,0.111-3.525,1.987-3.525,5.629v20.032h-9.248v-20.032
			c0-9.646,4.258-14.712,12.773-15.197h0.521c8.516,0.485,12.774,5.552,12.774,15.197v20.032h-9.248v-20.032
			c0-3.642-1.176-5.518-3.526-5.629H697.28z"/>
		<path fill="#FFFFFF" d="M727.993,389.282c0.019-3.377,0.799-6.412,2.341-9.105c1.541-2.759,3.622-4.922,6.242-6.489
			c2.62-1.59,5.404-2.384,8.353-2.384c2.254,0,4.393,0.452,6.416,1.357c2.003,0.839,3.824,2.108,5.462,3.808
			c1.618,1.7,2.87,3.643,3.757,5.827c0.886,2.186,1.329,4.592,1.329,7.219c0,2.561-0.452,4.955-1.357,7.185
			c-0.887,2.208-2.13,4.139-3.729,5.795c-1.6,1.678-3.42,2.946-5.462,3.808c-2.063,0.86-4.201,1.291-6.416,1.291
			c-2.178,0-4.307-0.431-6.387-1.291l-0.665-0.331l-0.665-0.331v13.973l-9.219-0.033V389.282z M737.212,389.515
			c0,1.567,0.356,2.979,1.069,4.238c0.713,1.303,1.667,2.34,2.861,3.112c1.175,0.772,2.438,1.158,3.786,1.158
			s2.62-0.386,3.814-1.158s2.148-1.81,2.861-3.112c0.713-1.28,1.069-2.693,1.069-4.238c0-2.34-0.771-4.371-2.312-6.093
			c-1.522-1.699-3.334-2.55-5.434-2.55c-2.081,0-3.883,0.851-5.404,2.55C737.982,385.122,737.212,387.152,737.212,389.515z"/>
		<path fill="#FFFFFF" d="M767.481,359.582l9.219-0.033V406.5l-9.219,0.133V359.582z"/>
		<path fill="#FFFFFF" d="M806.998,405.573c-0.617,0.31-1.069,0.519-1.358,0.629c-2.043,0.905-4.182,1.357-6.416,1.357
			c-2.948,0-5.732-0.783-8.353-2.351c-2.62-1.59-4.701-3.753-6.242-6.49c-1.561-2.781-2.341-5.882-2.341-9.304
			c0-2.583,0.452-4.988,1.358-7.218c0.905-2.207,2.148-4.128,3.728-5.762c1.562-1.633,3.372-2.881,5.434-3.741
			c2.062-0.905,4.2-1.357,6.416-1.357c2.196,0,4.335,0.441,6.416,1.324c2.08,0.883,3.892,2.142,5.433,3.774
			c1.619,1.678,2.871,3.599,3.758,5.762c0.905,2.229,1.357,4.635,1.357,7.218l-0.028,17.251l-9.161-0.1V405.573z M792.576,385.144
			c-0.713,1.303-1.069,2.727-1.069,4.271c0,2.34,0.771,4.359,2.313,6.06c1.521,1.678,3.323,2.516,5.404,2.516
			c2.1,0,3.911-0.838,5.434-2.516c1.541-1.7,2.312-3.72,2.312-6.06c0-1.545-0.356-2.969-1.069-4.271
			c-0.713-1.302-1.667-2.339-2.861-3.112c-1.175-0.75-2.446-1.126-3.814-1.126c-1.329,0-2.592,0.376-3.786,1.126
			C794.243,382.805,793.289,383.842,792.576,385.144z"/>
		<path fill="#FFFFFF" d="M826.429,381.7h-6.098l2.081-9.072h4.017v-13.046l9.22,0.066v12.979h6.127l-2.053,9.072h-4.074v11.225
			c0,3.002,1.637,4.503,4.913,4.503c1.059,0,1.868-0.144,2.427-0.431l-2.658,10.529c-0.482,0.088-0.954,0.133-1.416,0.133
			c-2.756,0-5.048-0.508-6.879-1.523c-1.85-1.015-3.246-2.549-4.19-4.603c-0.944-2.03-1.416-4.624-1.416-7.78V381.7z"/>
		<path fill="#FFFFFF" d="M853.691,372.628c0-4.105,0.616-7.263,1.85-9.47c1.232-2.186,2.967-3.797,5.202-4.834
			c2.196-1.016,4.855-1.523,7.977-1.523l0.058,9.801c-2.331-0.021-3.892,0.364-4.682,1.159c-0.79,0.839-1.186,2.461-1.186,4.867
			h3.613l2.052,9.072h-5.665v24.833h-9.219V381.7h-3.034l-2.081-9.072H853.691z"/>
		<path fill="#FFFFFF" d="M882.949,405.275c-2.62-1.59-4.701-3.764-6.242-6.523c-1.561-2.781-2.341-5.894-2.341-9.337
			c0-2.583,0.452-4.988,1.358-7.218c0.905-2.229,2.148-4.161,3.728-5.795c1.6-1.655,3.42-2.925,5.463-3.808
			c2.08-0.883,4.209-1.324,6.387-1.324c2.196,0,4.335,0.441,6.416,1.324c2.022,0.839,3.844,2.098,5.462,3.774
			c1.599,1.678,2.842,3.621,3.729,5.828c0.905,2.229,1.357,4.635,1.357,7.218c0,2.627-0.443,5.033-1.329,7.218
			c-0.887,2.208-2.139,4.161-3.757,5.861c-1.638,1.678-3.459,2.946-5.462,3.808c-2.023,0.904-4.162,1.357-6.416,1.357
			C888.354,407.659,885.569,406.864,882.949,405.275z M885.897,395.508c1.521,1.699,3.323,2.549,5.404,2.549
			c2.1,0,3.911-0.85,5.434-2.549c1.541-1.7,2.312-3.73,2.312-6.093c0-1.545-0.356-2.969-1.069-4.271
			c-0.713-1.302-1.667-2.339-2.861-3.112c-1.175-0.772-2.446-1.159-3.814-1.159c-1.329,0-2.592,0.387-3.786,1.159
			c-1.194,0.773-2.148,1.811-2.861,3.112c-0.713,1.303-1.069,2.727-1.069,4.271C883.585,391.777,884.355,393.808,885.897,395.508z"
			/>
		<path fill="#FFFFFF" d="M929.026,381.502c-0.482-0.376-1.108-0.585-1.879-0.63h-0.521c-2.351,0.111-3.525,1.987-3.525,5.629
			v20.065h-9.248v-20.065c0-9.646,4.258-14.712,12.773-15.197h0.521c0.636,0.021,1.262,0.088,1.879,0.198V381.502z"/>
		<path fill="#FFFFFF" d="M960.798,385.739v20.86h-9.277v-20.86c-0.154-3.112-1.319-4.712-3.497-4.801h-0.52
			c-2.351,0.089-3.526,1.954-3.526,5.596V406.6h-9.248v-20.065c0-9.602,4.258-14.668,12.774-15.197h0.52
			c3.392,0.221,6.107,1.147,8.15,2.781c2.022-1.634,4.729-2.561,8.121-2.781h0.52c8.516,0.529,12.774,5.596,12.774,15.197V406.6
			h-9.248v-20.065c0-3.642-1.176-5.507-3.526-5.596h-0.52C962.117,381.027,960.952,382.627,960.798,385.739z"/>
	</g>
</g>
<g id="Side_Text" display="none">
	<text transform="matrix(1 0 0 1 1189.625 212.6875)" display="inline"><tspan x="0" y="0" fill="#FFFFFF" stroke="#FFFFFF" stroke-miterlimit="10" font-family="'TimesNewRomanPSMT'" font-size="67.9813">Mercury Logistics</tspan><tspan x="0" y="68.801" fill="#FFFFFF" stroke="#FFFFFF" stroke-miterlimit="10" font-family="'TimesNewRomanPSMT'" font-size="67.9813">&amp; Operations</tspan><tspan x="0" y="137.603" fill="#FFFFFF" stroke="#FFFFFF" stroke-miterlimit="10" font-family="'TimesNewRomanPSMT'" font-size="67.9813">Tools</tspan></text>
</g>
<g id="Swoosh3">
</g>
<g id="Layer_6">
	<g>
		<g>
			<path fill="#FF4777" d="M15.524,276.799c0,0,0.527-0.563,1.547-1.653c1.022-1.085,2.56-2.693,4.621-4.725
				c4.102-4.09,10.361-9.851,18.615-16.851c4.129-3.498,8.749-7.315,13.856-11.375c5.119-4.043,10.713-8.343,16.749-12.857
				c12.086-9.008,25.879-18.979,41.277-29.335c15.387-10.374,32.271-21.297,50.363-32.49c9.037-5.613,18.408-11.239,28.053-16.877
				c9.641-5.647,19.548-11.325,29.687-16.994c20.329-11.237,41.566-22.477,63.522-33.196c21.943-10.748,44.525-21.142,67.487-30.803
				c22.947-9.694,46.188-18.885,69.599-26.925c11.724-3.961,23.461-7.737,35.298-10.835c11.815-3.186,23.695-5.797,35.596-7.717
				c5.953-0.927,11.896-1.759,17.855-2.287c2.967-0.305,5.954-0.51,8.916-0.716c2.983-0.13,5.938-0.299,8.911-0.335
				c11.852-0.274,23.678,0.502,35.233,2.586c5.78,1.056,11.495,2.448,17.056,4.319c5.562,1.851,10.991,4.126,16.13,6.942
				c10.246,5.642,19.297,13.447,25.62,22.52c6.359,9.056,10.108,18.909,12.022,28.14c1.934,9.275,2.35,18.005,1.951,25.998
				c-0.743,16.008-4.071,29.174-7.206,39.735c-3.198,10.557-6.422,18.522-8.724,23.899c-2.338,5.363-3.682,8.166-3.682,8.166
				s0.104-0.772,0.309-2.268c0.215-1.487,0.534-3.693,0.95-6.571c0.724-5.764,1.891-14.179,2.692-24.811
				c0.424-5.311,0.673-11.175,0.708-17.488c-0.01-1.573-0.021-3.178-0.031-4.814c-0.067-1.625-0.137-3.28-0.208-4.965
				c-0.205-3.355-0.451-6.801-0.905-10.304c-0.181-1.759-0.536-3.504-0.796-5.288c-0.293-1.773-0.686-3.541-1.036-5.335
				c-0.87-3.535-1.817-7.128-3.153-10.586l-0.469-1.313c-0.167-0.433-0.361-0.853-0.541-1.281c-0.37-0.85-0.716-1.717-1.102-2.563
				c-0.836-1.657-1.631-3.347-2.611-4.928c-1.902-3.194-4.009-6.276-6.551-9.026c-5.08-5.486-11.403-10.002-19.016-13.191
				c-7.541-3.324-16.344-5.191-25.692-6.293c-18.836-1.94-39.934-0.194-61.725,3.184c-21.837,3.372-44.571,8.352-67.553,14.45
				c-11.483,3.091-23.021,6.503-34.542,10.201c-2.877,0.941-5.757,1.883-8.639,2.826c-2.868,0.992-5.738,1.985-8.609,2.978
				c-5.74,2-11.462,4.087-17.179,6.197c-22.818,8.574-45.406,17.924-67.427,27.669c-21.998,9.796-43.521,19.807-64.136,29.962
				c-10.332,5.031-20.444,10.085-30.296,15.128c-9.848,5.052-19.443,10.077-28.771,15.001c-18.637,9.884-36.075,19.59-51.999,28.852
				C109.6,213.2,101.985,217.67,94.789,222c-7.195,4.332-13.973,8.519-20.298,12.526c-6.325,4.006-12.196,7.834-17.576,11.444
				c-5.394,3.592-10.311,6.951-14.701,10.057c-8.795,6.195-15.466,11.396-19.941,15.038c-2.244,1.817-3.918,3.257-5.045,4.241
				c-1.122,0.986-1.701,1.495-1.701,1.495L15.524,276.799z"/>
		</g>
		<g>
			<path fill="#FF4777" d="M680.296,223.68c0,0-0.442,0.631-1.301,1.854c-0.859,1.218-2.157,3.025-3.914,5.325
				c-3.489,4.624-8.881,11.204-16.074,19.29c-3.599,4.042-7.64,8.468-12.128,13.202c-4.503,4.72-9.439,9.76-14.785,15.074
				c-10.707,10.611-22.969,22.414-36.767,34.822c-13.783,12.425-28.973,25.603-45.321,39.218
				c-8.162,6.822-16.654,13.703-25.416,20.637c-8.755,6.94-17.771,13.948-27.016,20.98c-18.557,13.971-38.012,28.072-58.253,41.758
				c-20.223,13.712-41.129,27.164-62.513,39.942c-21.365,12.81-43.091,25.163-65.146,36.399
				c-11.054,5.562-22.147,10.943-33.435,15.667c-11.253,4.809-22.651,9.056-34.165,12.623c-5.765,1.751-11.534,3.406-17.36,4.763
				c-2.896,0.717-5.824,1.338-8.728,1.957c-2.936,0.546-5.838,1.127-8.777,1.578c-11.696,1.931-23.515,2.816-35.248,2.369
				c-5.871-0.236-11.725-0.814-17.492-1.89c-5.766-1.054-11.46-2.547-16.943-4.616c-10.934-4.153-20.988-10.615-28.519-18.713
				c-7.564-8.076-12.654-17.309-15.842-26.181c-3.213-8.913-4.846-17.499-5.57-25.469c-1.504-15.954-0.051-29.457,1.575-40.353
				c1.689-10.9,3.768-19.238,5.294-24.885c1.563-5.637,2.502-8.601,2.502-8.601s0.004,0.779,0.012,2.289
				c-0.005,1.502-0.012,3.731-0.021,6.64c0.089,5.809,0.111,14.304,0.805,24.942c0.323,5.318,0.897,11.16,1.746,17.416
				c0.23,1.556,0.465,3.144,0.705,4.763c0.295,1.599,0.595,3.229,0.901,4.888c0.673,3.293,1.399,6.671,2.338,10.075
				c0.425,1.717,1.021,3.396,1.528,5.125c0.538,1.715,1.174,3.41,1.772,5.138c1.356,3.378,2.797,6.804,4.604,10.04l0.647,1.234
				c0.227,0.405,0.478,0.795,0.715,1.193c0.486,0.79,0.949,1.6,1.45,2.384c1.059,1.524,2.083,3.086,3.275,4.515
				c2.331,2.896,4.848,5.653,7.749,8.021c5.798,4.721,12.691,8.308,20.675,10.4c7.932,2.235,16.909,2.853,26.32,2.636
				c18.922-0.715,39.568-5.396,60.672-11.79c21.15-6.395,42.964-14.506,64.866-23.761c10.938-4.667,21.884-9.66,32.775-14.934
				c2.717-1.334,5.437-2.67,8.158-4.007c2.701-1.384,5.403-2.768,8.107-4.153c5.404-2.783,10.778-5.651,16.143-8.54
				c21.395-11.683,42.451-24.101,62.892-36.832c20.411-12.778,40.32-25.702,59.313-38.642c9.527-6.427,18.832-12.847,27.882-19.219
				c9.044-6.38,17.842-12.698,26.389-18.88c17.07-12.395,32.979-24.444,47.449-35.844c7.224-5.714,14.138-11.205,20.657-16.499
				c6.518-5.296,12.644-10.391,18.345-15.243c5.703-4.852,10.98-9.463,15.803-13.792c4.838-4.312,9.236-8.325,13.149-12.015
				c7.841-7.365,13.72-13.448,17.641-17.68c1.967-2.113,3.424-3.773,4.401-4.905c0.974-1.133,1.476-1.718,1.476-1.718
				L680.296,223.68z"/>
		</g>
	</g>
</g>
</svg>
